<?xml version="1.0" encoding="utf-8"?>
<!-- Generator: Adobe Illustrator 24.0.2, SVG Export Plug-In . SVG Version: 6.00 Build 0)  -->
<svg version="1.1" id="Warstwa_1" xmlns="http://www.w3.org/2000/svg" xmlns:xlink="http://www.w3.org/1999/xlink" x="0px" y="0px"
	 viewBox="0 0 595.3 503.9" style="enable-background:new 0 0 595.3 503.9;" xml:space="preserve">
<style type="text/css">
	.st0{fill:none;stroke:#B2958A;stroke-width:20;stroke-linecap:round;stroke-miterlimit:10;}
</style>
<path class="st0" d="M448.7,13.9c0,0-163.7,222.2-190,472.6"/>
<path class="st0" d="M12.6,484.5c0,0,117.1-334.4,213.5-334.4c130.7,0,213.5,334.4,213.5,334.4"/>
<path class="st0" d="M446.1,290.9c-27.4-16.5-38.4-48.8-24.5-72c13.9-23.2,47.4-28.6,74.8-12.1s38.4,48.8,24.5,72
	C507,302.1,473.5,307.5,446.1,290.9z"/>
<path class="st0" d="M632.4,319.2c0,0,234,37.2,322.3-12.2c36.8-20.6,86.5-197.9,77.6-259.8"/>
<path class="st0" d="M1061.7,736.8c0,0-45.7-204.3,0-356.8c89.2-298,34.2-433.6,34.2-433.6"/>
<path class="st0" d="M820,235.8c-22.2-23.1-24.4-57.1-5-75.9c19.4-18.8,53.2-15.4,75.3,7.7s24.4,57.1,5,75.9
	C875.9,262.4,842.2,258.9,820,235.8z"/>
</svg>
