<?xml version="1.0" encoding="utf-8"?>
<!-- Generator: Adobe Illustrator 24.0.2, SVG Export Plug-In . SVG Version: 6.00 Build 0)  -->
<svg version="1.1" id="Warstwa_1" xmlns="http://www.w3.org/2000/svg" xmlns:xlink="http://www.w3.org/1999/xlink" x="0px" y="0px"
	 viewBox="0 0 595.3 841.9" style="enable-background:new 0 0 595.3 841.9;" xml:space="preserve">
<style type="text/css">
	.st0{fill:none;stroke:#B2958A;stroke-width:20;stroke-linecap:round;stroke-miterlimit:10;}
</style>
<path class="st0" d="M-219.5,13.9c0,0-163.7,222.2-190,472.6"/>
<path class="st0" d="M-655.6,484.5c0,0,117.1-334.4,213.5-334.4c130.7,0,213.5,334.4,213.5,334.4"/>
<path class="st0" d="M-222.1,290.9c-27.4-16.5-38.4-48.8-24.5-72c13.9-23.2,47.4-28.6,74.8-12.1s38.4,48.8,24.5,72
	C-161.2,302.1-194.7,307.5-222.1,290.9z"/>
<path class="st0" d="M47.9,412.6c0,0,235.5,26.3,321.4-27c35.8-22.3,98.1-183.4,98.1-275.4"/>
<path class="st0" d="M471,821.1c0,0-45.7-204.3,0-356.8c89.2-298,34.2-433.6,34.2-433.6"/>
<path class="st0" d="M231.4,320.6c-23.2-22-27-55.9-8.5-75.6c18.5-19.7,52.4-17.8,75.6,4.2c23.2,22,27,55.9,8.5,75.6
	C288.5,344.6,254.7,342.7,231.4,320.6z"/>
</svg>
