<?xml version="1.0" encoding="utf-8"?>
<!-- Generator: Adobe Illustrator 24.0.2, SVG Export Plug-In . SVG Version: 6.00 Build 0)  -->
<svg version="1.1" id="Warstwa_1" xmlns="http://www.w3.org/2000/svg" xmlns:xlink="http://www.w3.org/1999/xlink" x="0px" y="0px"
	 viewBox="0 0 595.3 841.9" style="enable-background:new 0 0 595.3 841.9;" xml:space="preserve">
<style type="text/css">
	.st0{fill:none;stroke:#B2958A;stroke-width:20;stroke-linecap:round;stroke-miterlimit:10;}
</style>
<path class="st0" d="M-219.5,13.9c0,0-163.7,222.2-190,472.6"/>
<path class="st0" d="M-655.6,484.5c0,0,117.1-334.4,213.5-334.4c130.7,0,213.5,334.4,213.5,334.4"/>
<path class="st0" d="M-222.1,290.9c-27.4-16.5-38.4-48.8-24.5-72c13.9-23.2,47.4-28.6,74.8-12.1s38.4,48.8,24.5,72
	C-161.2,302.1-194.7,307.5-222.1,290.9z"/>
<path class="st0" d="M885.4,412.6c0,0,235.5,26.3,321.4-27c35.8-22.3,98.1-183.4,98.1-275.4"/>
<path class="st0" d="M1308.5,821.1c0,0-45.7-204.3,0-356.8c89.2-298,34.2-433.6,34.2-433.6"/>
<path class="st0" d="M1068.9,320.6c-23.2-22-27-55.9-8.5-75.6c18.5-19.7,52.4-17.8,75.6,4.2s27,55.9,8.5,75.6
	C1126,344.6,1092.2,342.7,1068.9,320.6z"/>
<path class="st0" d="M148.5,91.5c0,0,89.9,298.4,214,190.5C501.9,161,263.4,61.5,204.8,53.4"/>
<path class="st0" d="M319.3,806.2c0,0-97.4-373.2,49.8-412.5c132.8-35.4-34,370.5-7.7,412.7"/>
<path class="st0" d="M263.1,233.5c-20.1-23.4-20.1-56-0.2-72.9c20-16.9,52.4-11.7,72.5,11.7c20.1,23.4,20.1,56,0.2,72.9
	C315.6,262,283.1,256.8,263.1,233.5z"/>
</svg>
