<?xml version="1.0" encoding="utf-8"?>
<!-- Generator: Adobe Illustrator 24.0.2, SVG Export Plug-In . SVG Version: 6.00 Build 0)  -->
<svg version="1.1" id="Warstwa_1" xmlns="http://www.w3.org/2000/svg" xmlns:xlink="http://www.w3.org/1999/xlink" x="0px" y="0px"
	 viewBox="0 0 653.6 612.8" style="enable-background:new 0 0 653.6 612.8;" xml:space="preserve">
<style type="text/css">
	.st0{fill:none;stroke:#B2958A;stroke-width:20;stroke-linecap:round;stroke-miterlimit:10;}
</style>
<path class="st0" d="M-184.2-49.3c0,0-163.7,222.2-190,472.6"/>
<path class="st0" d="M-620.3,421.3c0,0,117.1-334.4,213.5-334.4c130.7,0,213.5,334.4,213.5,334.4"/>
<path class="st0" d="M-186.8,227.7c-27.4-16.5-38.4-48.8-24.5-72c13.9-23.2,47.4-28.6,74.8-12.1s38.4,48.8,24.5,72
	C-125.9,238.9-159.4,244.3-186.8,227.7z"/>
<path class="st0" d="M561.7,375.7c-31.9,3.1-59.9-16.2-62.6-43.2c-2.7-26.9,20.9-51.2,52.8-54.3c31.9-3.1,59.9,16.2,62.6,43.2
	C617.2,348.3,593.6,372.6,561.7,375.7z"/>
<path class="st0" d="M920.7,349.5c0,0,235.5,26.3,321.4-27c35.8-22.3,98.1-183.4,98.1-275.4"/>
<path class="st0" d="M1343.8,757.9c0,0-45.7-204.3,0-356.8c89.2-298,34.2-433.6,34.2-433.6"/>
<path class="st0" d="M1104.2,257.5c-23.2-22-27-55.9-8.5-75.6c18.5-19.7,52.4-17.8,75.6,4.2c23.2,22,27,55.9,8.5,75.6
	C1161.3,281.4,1127.5,279.5,1104.2,257.5z"/>
<path class="st0" d="M1710,28.3c0,0,89.9,298.4,214,190.5c139.4-121-99.1-220.5-157.7-228.6"/>
<path class="st0" d="M1880.8,743c0,0-97.4-373.2,49.8-412.5c132.8-35.4-34,370.5-7.7,412.7"/>
<path class="st0" d="M1824.6,170.3c-20.1-23.4-20.1-56-0.2-72.9c20-16.9,52.4-11.7,72.5,11.7c20.1,23.4,20.1,56,0.2,72.9
	C1877.1,198.9,1844.7,193.6,1824.6,170.3z"/>
<path class="st0" d="M517.8,597.7c0,0-111.1-230.8-86.6-469.6"/>
<path class="st0" d="M372.5,16.3c-0.3-3.3-7.3,247.8-22.9,346.5c-26,164.6-314.3,231.5-314.3,231.5"/>
</svg>
