<?xml version="1.0" encoding="utf-8"?>
<!-- Generator: Adobe Illustrator 23.1.0, SVG Export Plug-In . SVG Version: 6.00 Build 0)  -->
<svg version="1.1" id="Warstwa_1" xmlns="http://www.w3.org/2000/svg" xmlns:xlink="http://www.w3.org/1999/xlink" x="0px" y="0px"
	 viewBox="0 0 507 461.8" style="enable-background:new 0 0 507 461.8;" xml:space="preserve">
<style type="text/css">
	.st0{fill:none;stroke:#A78D81;stroke-width:6;stroke-linecap:round;stroke-miterlimit:10;}
</style>
<path class="st0 postac1" d="M298,55.9c0,29.2-19.9,52.9-44.5,52.9S209,85.1,209,55.9S229,3,253.5,3C278.1,3,298,26.7,298,55.9z"/>
<path class="st0 postac1" d="M485.1,246c0,0-174.9,76.7-205-85.6"/>
<path class="st0 postac1" d="M22,246c0,0,174.9,76.7,205-85.6"/>
<path class="st0 postac1" d="M267.2,458.8C202.5,373.7,3,398.7,3,363.9c0-23.9,112.2-43.3,250.5-43.3S504,340,504,363.9
	c0,22.8-98,48.1-234.2,33.7"/>
</svg>
